<svg xmlns="http://www.w3.org/2000/svg" xmlns:xlink="http://www.w3.org/1999/xlink" xmlns:sketch="http://www.bohemiancoding.com/sketch/ns" width="233px" height="80px" viewBox="0 0 233 80" version="1.1"><style>.style0{fill:	none;fill-rule:	evenodd;}.style1{fill:	#50B7C8;}.style2{fill:	#1A1918;}.style3{fill:	#FFFFFF;}</style><title>Slice 1</title><description>Created with Sketch (http://www.bohemiancoding.com/sketch)</description><defs/><g sketch:type="MSPage" class="style0"><rect d="M0,0 L0,80 L80,80 L80,0 L0,0 Z M0,0" sketch:type="MSShapeGroup" x="0" y="0" width="80" height="80" class="style1"/><path d="M60.6403288 39.1 L60.6403288 39.1 L24.6409764 39.1 L47.1278143 23.8 L40.2818151 35.5 C40.2545055 35.6 40.2 35.7 40.2 35.7 C40.2374721 35.9 40.4 36.1 40.6 36.1 L43.3192416 36.1 L43.3203678 36.1 L49.7771337 36.1 C49.815142 36.1 49.9 36.1 49.9 36.1 C53.3577973 36.1 56.2 33.2 56.2 29.7 C56.1694263 26.5 53.8 23.8 50.7 23.4 L55.2825659 15.6 C55.3215596 15.5 55.3 15.4 55.3 15.4 C55.3447869 15.2 55.2 15 55 15 C54.9081138 15 54.8 15 54.8 15.1 L54.7794486 15.1 L50.5374405 18 L50.5354697 18 L42.5599202 23.4 L24.3139642 23.4 C24.1209665 23.4 24 23.5 24 23.7 L23.9552785 36.1 L16.1792021 41.4 C16.0726381 41.4 16 41.6 16 41.7 C16 41.9 16.2 42 16.4 42 L16.3638943 42 L20.3494167 42 L20.357863 42 L52.3663437 42 L31.5859379 56.2 L37.7283611 45.7 C37.7674956 45.6 37.8 45.5 37.8 45.5 C37.798043 45.3 37.6 45.1 37.4 45.1 L24.3150904 45.1 C24.1167434 45.1 24 45.3 24 45.5 L23.9552785 45.5 L23.9552785 57.4 L23.9564046 57.4 C23.9564046 57.6 24.1 57.8 24.3 57.8 L27.3177463 57.8 L23.4354093 64.4 L23.4365355 64.4 C23.3975418 64.5 23.4 64.6 23.4 64.6 C23.3752999 64.8 23.5 65 23.7 65 C23.8140847 65 23.9 65 23.9 64.9 L34.4410652 57.8 C36.8835914 57.8 49.8 57.8 49.9 57.8 C53.3577973 57.8 56.2 54.9 56.2 51.4 C56.1694263 48.8 54.6 46.6 52.3 45.6 L60.8047499 39.8 C60.9207457 39.8 61 39.6 61 39.5 C61 39.3 60.8 39.1 60.6 39.1 L60.6403288 39.1 L60.6403288 39.1 L60.6403288 39.1 Z M49.681626 26 C49.6928113 26 49.7 26 49.7 26 C51.5303506 26 53 27.6 53 29.5 C53 31.4 51.5 33 49.7 33 C49.705088 33 49.7 33 49.7 33 L45 33 L48.8691856 26 L49.681626 26 L49.681626 26 L49.681626 26 L49.681626 26 Z M27 26 L38 26 L27 34 L27 26 L27 26 L27 26 L27 26 Z M27 55 L27 48 L33 48 L29.1160115 55 L27 55 L27 55 L27 55 L27 55 Z M53 51.5 C53 53.4 51.5 55 49.7 55 L49.7392844 55 L39 55 L48.6664667 48 L49.7392844 48 C51.5405887 48 53 49.6 53 51.5 L53 51.5 Z M53 51.5" sketch:type="MSShapeGroup" class="style2"/><g sketch:type="MSLayerGroup" class="style3"><path d="M115.4 54 L113.1 51.7 L113.1 45 L116.9 45 L116.9 48.1 C116.9 49.5 117.4 50.2 118.5 50.2 C119.6 50.2 120.2 49.5 120.2 48.1 L120.2 43.4 L113 39.3 L113 29.3 L115.2 27 L121.5 27 L123.9 29.5 L123.9 35.4 L120.2 35.4 L120.2 32.8 C120.3 31.5 119.7 30.8 118.6 30.7 L118.6 30.7 C118 30.7 117.6 30.9 117.3 31.2 C117 31.5 116.9 32 116.9 32.8 L116.9 36.4 L124 40.7 L124 51.5 L121.6 54 L115.4 54 " sketch:type="MSShapeGroup"/><path d="M129 54 L129 27 L137.1 27 L140 29.9 L140 39.9 L137.1 42.8 L132.8 42.8 L132.8 54 L129 54 L129 54 L129 54 L129 54 ZM133 39 C133 39 134.7 39 134.7 39 C135.2 39 135.5 38.9 135.7 38.7 C135.9 38.5 136 38.1 136 37.7 L136 32.2 C136 31.8 135.9 31.5 135.7 31.3 C135.5 31.1 135.2 31 134.7 31 L133 31 L133 39 L133 39 ZM133 39 " sketch:type="MSShapeGroup"/><path d="M150.3 54 L149.9 50.4 L147.2 50.4 L146.9 54 L143 54 L145.8 27 L150.8 27 L154 54 L150.3 54 L150.3 54 L150.3 54 L150.3 54 ZM147 47 L149 47 L147.9 35 L147 47 L147 47 ZM147 47 " sketch:type="MSShapeGroup"/><path d="M166.2 54 L164.4 42.7 L162.9 42.7 L162.9 54 L159 54 L159 27 L167.1 27 L169.9 29.8 L169.9 39.8 L168.1 41.6 L170 54 L166.2 54 L166.2 54 L166.2 54 L166.2 54 ZM163 39 C163 39 164.7 39 164.7 39 C165.6 39 166 38.6 166 37.8 L166 32.2 C166 31.4 165.6 31 164.8 31 L163 31 L163 39 L163 39 ZM163 39 " sketch:type="MSShapeGroup"/><path d="M182.1 54 L178.8 42.7 L178.8 54 L175 54 L175 27 L178.8 27 L178.8 39.3 L182.1 27 L185.9 27 L182.5 41 L186 54 L182.1 54 " sketch:type="MSShapeGroup"/><path d="M191 54 L191 27 L199.1 27 L202 29.9 L202 38.7 L200.3 40.4 L202 42.2 L202 51.2 L199.2 54 L191 54 L191 54 L191 54 L191 54 ZM196.5 50 C196.6 50 196.7 50 196.8 50 C197.6 50 198 49.5 198 48.6 L198 43.4 C198 42.5 197.5 42 196.6 42 L195 42 L195 50 L196.5 50 L196.5 50 L196.5 50 L196.5 50 ZM195 39 L196.5 39 C197.1 39 197.4 38.9 197.7 38.6 C197.9 38.3 198 37.8 198 37.2 L198 32.4 C198 32 197.9 31.6 197.7 31.4 C197.5 31.1 197.1 31 196.6 31 L195 31 L195 39 L195 39 ZM195 39 " sketch:type="MSShapeGroup"/><path d="M209.8 54 L207 51.2 L207 29.8 L209.7 27 L215.1 27 L218 30 L218 50.9 L215 54 L209.8 54 L209.8 54 L209.8 54 L209.8 54 ZM213 31 C211.6 31.1 211 31.7 211 32.8 L211 49.1 C211 49.7 211.1 50.2 211.5 50.5 C211.8 50.8 212.3 51 213 51 C214.4 50.9 215 50.3 215 49.1 L215 32.8 C214.9 31.7 214.2 31.1 213 31 L213 31 ZM213 31 " sketch:type="MSShapeGroup"/><path d="M221 27 L224.9 27 L227.2 34 L229.2 27 L232.9 27 L229.2 39.8 L233 54 L229.2 54 L227.1 46.3 L224.9 54 L221.1 54 L225.4 39.8 L221 27 " sketch:type="MSShapeGroup"/></g></g></svg>