<?xml version="1.0" encoding="utf-8"?>
<!-- Generator: Adobe Illustrator 16.0.0, SVG Export Plug-In . SVG Version: 6.00 Build 0)  -->
<!DOCTYPE svg PUBLIC "-//W3C//DTD SVG 1.1//EN" "http://www.w3.org/Graphics/SVG/1.1/DTD/svg11.dtd">
<svg version="1.1" id="Layer_1" xmlns="http://www.w3.org/2000/svg" xmlns:xlink="http://www.w3.org/1999/xlink" x="0px" y="0px"
	 width="73.188px" height="16.12px" viewBox="0 0 73.188 16.12" enable-background="new 0 0 73.188 16.12" xml:space="preserve">
<g>
	<path fill="#FFFFFF" d="M1.469,16.12l-1.405-1.4l-0.001-3.967l2.295-0.007l0.005,1.872c0.02,0.824,0.35,1.225,1.004,1.225
		c0.687-0.002,0.997-0.4,0.997-1.225V9.773L0.001,7.326L0,1.362l1.357-1.36L5.155,0l1.489,1.484l0.002,3.501L4.415,4.991
		L4.409,3.439c0.02-0.776-0.314-1.182-0.992-1.203c-0.002,0-0.004,0-0.005,0c-0.37,0-0.615,0.085-0.776,0.252
		C2.44,2.688,2.352,3,2.364,3.439v2.191l4.343,2.53l0.003,6.47L5.222,16.12H1.469z"/>
	<path fill="#FFFFFF" d="M9.673,16.12L9.667,0.005L14.569,0l1.722,1.719L16.293,7.7l-1.72,1.721l-2.611,0.001l0.006,6.698H9.673z
		 M11.968,7.212c0,0,1.123-0.005,1.126-0.005c0.315,0,0.509-0.066,0.634-0.199c0.129-0.132,0.189-0.336,0.178-0.602V2.929
		c0.012-0.236-0.044-0.42-0.166-0.544c-0.134-0.141-0.354-0.212-0.654-0.212h-1.118V7.212z"/>
	<path fill="#FFFFFF" d="M22.625,16.12l-0.194-2.146l-1.691,0.005l-0.184,2.136l-2.381,0.005l1.712-16.114L22.986,0l1.936,16.12
		H22.625z M20.893,11.77l1.288-0.006l-0.699-7.107L20.893,11.77z"/>
	<path fill="#FFFFFF" d="M32.167,16.12l-1.045-6.768l-0.906,0.006l0.004,6.756l-2.336,0.006L27.879,0.005L32.717,0l1.699,1.697
		l0.002,5.961l-1.062,1.063l1.107,7.398H32.167z M30.219,7.127c0,0,1.123-0.005,1.125-0.005c0.541,0,0.795-0.255,0.814-0.758V2.888
		c-0.02-0.49-0.275-0.738-0.76-0.738l-1.18,0V7.127z"/>
	<polygon fill="#FFFFFF" points="42.172,16.12 40.174,9.397 40.186,16.114 37.848,16.12 37.842,0.005 40.18,0 40.186,7.318 
		42.165,0.003 44.5,0 42.454,8.337 44.573,16.12 	"/>
	<path fill="#FFFFFF" d="M47.239,16.12L47.233,0.005L52.157,0l1.742,1.739v5.218l-1.061,1.064l1.061,1.051v5.346l-1.697,1.701
		H47.239z M50.545,13.883c0.057,0.005,0.111,0.008,0.162,0.008c0.516,0,0.789-0.286,0.809-0.85V10.01
		c0-0.554-0.297-0.823-0.904-0.823l-1.059,0.001v4.7L50.545,13.883z M49.553,6.979l0.998-0.006c0.361,0,0.594-0.081,0.744-0.24
		c0.168-0.177,0.242-0.457,0.221-0.834V3.122c0.008-0.266-0.057-0.471-0.191-0.612c-0.148-0.154-0.387-0.231-0.709-0.231
		l-1.062,0.001V6.979z"/>
	<path fill="#FFFFFF" d="M58.645,16.12l-1.68-1.676V1.658l1.654-1.656L61.866,0l1.787,1.782V14.27l-1.848,1.85H58.645z M60.34,2.151
		c-0.738,0.064-1.098,0.417-1.098,1.076v9.56c-0.01,0.337,0.074,0.601,0.25,0.785c0.182,0.195,0.469,0.3,0.848,0.312
		c0.762-0.043,1.139-0.411,1.119-1.097v-9.56C61.397,2.578,61.018,2.215,60.34,2.151z"/>
	<path fill="#FFFFFF" d="M65.813,0.005h2.373l1.463,4.176l1.227-4.176h2.248l-2.289,7.63l2.354,8.479h-2.312l-1.291-4.62
		l-1.377,4.62h-2.311l2.607-8.456L65.813,0.005z"/>
</g>
</svg>
