<?xml version="1.0" encoding="utf-8"?>
<!-- Generator: Adobe Illustrator 16.1.0, SVG Export Plug-In . SVG Version: 6.00 Build 0)  -->
<!DOCTYPE svg PUBLIC "-//W3C//DTD SVG 1.1//EN" "http://www.w3.org/Graphics/SVG/1.1/DTD/svg11.dtd">
<svg version="1.1" id="logo_board" xmlns="http://www.w3.org/2000/svg" xmlns:xlink="http://www.w3.org/1999/xlink" x="0px" y="0px"
	 width="126.103px" height="131.714px" viewBox="0 0 126.103 131.714" enable-background="new 0 0 126.103 131.714"
	 xml:space="preserve">
<g>
	<path fill="#285F68" d="M62.82,131.714L0,107.134V15.029l0.835-0.489C1.85,13.946,26.104,0,62.823,0
		c37.459,0,61.449,13.951,62.452,14.544l0.828,0.49v92.103L62.82,131.714z M3.375,104.83l59.45,23.261l59.902-23.264V16.989
		c-1.987-1.069-7.475-3.84-15.716-6.583C97.37,7.199,81.878,3.375,62.823,3.375c-32.048,0-54.885,11.199-59.448,13.621V104.83z"/>
	<g>
		<path fill="#285F68" d="M51.676,45.2l7.367-12.064l1.59,0.959l-3.637,5.857l13.058-9.259H47.884c0,0-0.223,0.021-0.297-0.217
			c-0.088-0.28,0.102-0.408,0.102-0.408l24.046-16.321c0,0,0.208-0.173,0.41-0.051c0.193,0.121,0.105,0.328,0.105,0.328
			l-7.58,12.602l-1.592-0.961l3.781-6.289l-14.187,9.46h22.33c0,0,0.245,0.001,0.328,0.229c0.067,0.185-0.097,0.355-0.097,0.355
			L52.19,45.519c0,0-0.204,0.165-0.401,0.023C51.572,45.385,51.676,45.2,51.676,45.2z"/>
		<path fill="#285F68" d="M57.849,25.129l-3.915,0.868v-5.2h10.131l2.735-1.854c0,0-14.343,0-14.521,0
			c-0.177,0-0.199,0.191-0.199,0.191v8.145l2.85-0.295L57.849,25.129z M68.753,20.797c1.193,0,2.163,0.973,2.163,2.167
			c0,1.192-0.97,2.166-2.163,2.166h-5.374l-0.961,1.596c0,0-0.13,0.258,0.139,0.258c0.267,0,6.196,0,6.196,0
			c2.224,0,4.021-1.8,4.021-4.02c0-2.221-1.797-4.021-4.021-4.021h-1.822l-0.412,1.854H68.753z M66.956,18.836l-0.156,0.106h0.132
			L66.956,18.836z M68.753,32.753h-1.378l-2.544,1.858h3.922c1.193,0,2.163,0.97,2.163,2.161c0,1.195-0.97,2.166-2.163,2.166H58.719
			l-2.479,1.857h12.514c2.224,0,4.021-1.8,4.021-4.022C72.774,34.55,70.977,32.753,68.753,32.753z M55.593,41.279l0.646-0.484H55.82
			L55.593,41.279z M53.991,38.938v-4.327h6.335l0.923-1.555c0,0,0.104-0.15,0.021-0.242c-0.056-0.063-0.217-0.061-0.217-0.061
			s-8.395,0-8.637,0c-0.278,0-0.285,0.279-0.285,0.279v7.562c0,0,0.045,0.201,0.265,0.201c0.216,0,3.423,0,3.423,0l0.879-1.857
			H53.991z"/>
	</g>
	<g>
		
			<text transform="matrix(1 0 0 1 24.2642 101.8091)" fill="#285F68" font-family="'GothamBlack'" font-size="6" letter-spacing="1">FOR A BETTER WEB</text>
	</g>
	<text transform="matrix(1 0 0 1 14.6782 31.8389)" fill="#285F68" font-family="'GothamBlack'" font-size="6" letter-spacing="1">BUILD</text>
	<g>
		<text transform="matrix(1 0 0 1 86.8086 31.8389)" fill="#285F68" font-family="'GothamBlack'" font-size="6" letter-spacing="1">RIGHT</text>
	</g>
	<rect x="78.566" y="35.717" fill="#285F68" width="38.5" height="1.351"/>
	<rect x="78.566" y="23.356" fill="#285F68" width="38.5" height="1.351"/>
	<rect x="9.066" y="35.717" fill="#285F68" width="36" height="1.351"/>
	<rect x="9.066" y="23.356" fill="#285F68" width="36" height="1.351"/>
	<rect x="8.399" y="88.129" fill="#285F68" width="109.333" height="1"/>
	<rect x="8.399" y="85.629" fill="#285F68" width="109.333" height="1"/>
	<g>
		<path fill="#285F68" d="M14.047,74.595l-1.961-1.958l-0.002-5.542l3.206-0.008l0.007,2.615c0.03,1.15,0.489,1.71,1.403,1.71
			c0.96-0.001,1.394-0.56,1.394-1.71v-3.975l-6.097-3.42l-0.003-8.331l1.897-1.9l5.306-0.003l2.079,2.075l0.002,4.892l-3.116,0.008
			l-0.008-2.169c0.027-1.085-0.438-1.651-1.385-1.68c-0.003,0-0.006,0-0.008,0c-0.519,0-0.858,0.12-1.085,0.353
			c-0.271,0.279-0.395,0.712-0.379,1.328v3.062l6.067,3.535l0.003,9.04l-2.078,2.081H14.047z"/>
		<path fill="#285F68" d="M25.51,74.595l-0.008-22.514l6.849-0.008l2.405,2.401l0.003,8.356l-2.402,2.404l-3.647,0.002l0.007,9.358
			H25.51z M28.716,62.149c0,0,1.569-0.008,1.573-0.008c0.441,0,0.712-0.093,0.888-0.277c0.179-0.185,0.263-0.469,0.248-0.84v-4.857
			c0.015-0.33-0.063-0.585-0.23-0.76c-0.188-0.197-0.497-0.297-0.916-0.297h-1.562V62.149z"/>
		<path fill="#285F68" d="M43.608,74.595l-0.274-2.998l-2.362,0.006l-0.258,2.984l-3.325,0.007l2.391-22.515l4.332-0.007
			l2.704,22.522H43.608z M41.186,68.518l1.8-0.009l-0.977-9.931L41.186,68.518z"/>
		<path fill="#285F68" d="M56.937,74.595l-1.459-9.454l-1.266,0.006l0.007,9.44l-3.265,0.008l-0.007-22.514l6.76-0.008l2.375,2.371
			l0.003,8.328l-1.483,1.485l1.543,10.337H56.937z M54.218,62.032c0,0,1.567-0.008,1.57-0.008c0.755,0,1.111-0.357,1.141-1.059
			v-4.857c-0.029-0.684-0.389-1.031-1.066-1.031l-1.645,0.001V62.032z"/>
		<polygon fill="#285F68" points="70.915,74.595 68.125,65.201 68.142,74.587 64.876,74.595 64.869,52.081 68.133,52.073 
			68.142,62.297 70.908,52.079 74.173,52.073 71.311,63.722 74.273,74.595 		"/>
		<path fill="#285F68" d="M77.999,74.595l-0.007-22.514l6.877-0.008l2.435,2.43l0.002,7.291l-1.483,1.487l1.481,1.469l0.002,7.469
			l-2.373,2.376H77.999z M82.618,71.47c0.079,0.008,0.155,0.011,0.226,0.011c0.721,0,1.102-0.4,1.129-1.188V66.06
			c0-0.774-0.413-1.151-1.262-1.151l-1.478,0.002v6.567L82.618,71.47z M81.234,61.824c0,0,1.39-0.007,1.392-0.007
			c0.506,0,0.831-0.114,1.041-0.337c0.234-0.247,0.338-0.639,0.308-1.166v-3.879c0.012-0.372-0.077-0.658-0.266-0.854
			c-0.209-0.216-0.542-0.325-0.993-0.325l-1.481,0.001V61.824z"/>
		<path fill="#285F68" d="M93.934,74.595l-2.345-2.341l-0.001-17.864l2.312-2.314l4.536-0.003l2.493,2.489l0.003,17.45l-2.583,2.583
			H93.934z M96.303,55.079c-1.031,0.089-1.532,0.581-1.532,1.503v13.356c-0.014,0.47,0.103,0.839,0.347,1.097
			c0.258,0.274,0.657,0.42,1.185,0.435c1.065-0.058,1.591-0.573,1.563-1.532V56.582C97.777,55.674,97.251,55.168,96.303,55.079z"/>
		<path fill="#285F68" d="M103.948,52.081h3.316l2.044,5.833l1.716-5.833h3.14l-3.198,10.661l3.288,11.846h-3.229l-1.806-6.456
			l-1.925,6.456h-3.229l3.643-11.815L103.948,52.081z"/>
	</g>
</g>
</svg>
